<svg width="181" height="38" viewBox="0 0 181 38" fill="none" xmlns="http://www.w3.org/2000/svg">
<path d="M18.55 14C19.6333 14 20.6 14.225 21.45 14.675C22.3167 15.125 22.9917 15.7917 23.475 16.675C23.975 17.5583 24.225 18.625 24.225 19.875V28H21.4V20.3C21.4 19.0667 21.0917 18.125 20.475 17.475C19.8583 16.8083 19.0167 16.475 17.95 16.475C16.8833 16.475 16.0333 16.8083 15.4 17.475C14.7833 18.125 14.475 19.0667 14.475 20.3V28H11.65V20.3C11.65 19.0667 11.3417 18.125 10.725 17.475C10.1083 16.8083 9.26667 16.475 8.2 16.475C7.13333 16.475 6.28333 16.8083 5.65 17.475C5.03333 18.125 4.725 19.0667 4.725 20.3V28H1.875V14.225H4.725V15.8C5.19167 15.2333 5.78333 14.7917 6.5 14.475C7.21667 14.1583 7.98333 14 8.8 14C9.9 14 10.8833 14.2333 11.75 14.7C12.6167 15.1667 13.2833 15.8417 13.75 16.725C14.1667 15.8917 14.8167 15.2333 15.7 14.75C16.5833 14.25 17.5333 14 18.55 14ZM33.8266 28.225C32.5266 28.225 31.3516 27.9333 30.3016 27.35C29.2516 26.75 28.4266 25.9167 27.8266 24.85C27.2266 23.7667 26.9266 22.5167 26.9266 21.1C26.9266 19.7 27.2349 18.4583 27.8516 17.375C28.4682 16.2917 29.3099 15.4583 30.3766 14.875C31.4432 14.2917 32.6349 14 33.9516 14C35.2682 14 36.4599 14.2917 37.5266 14.875C38.5932 15.4583 39.4349 16.2917 40.0516 17.375C40.6682 18.4583 40.9766 19.7 40.9766 21.1C40.9766 22.5 40.6599 23.7417 40.0266 24.825C39.3932 25.9083 38.5266 26.75 37.4266 27.35C36.3432 27.9333 35.1432 28.225 33.8266 28.225ZM33.8266 25.75C34.5599 25.75 35.2432 25.575 35.8766 25.225C36.5266 24.875 37.0516 24.35 37.4516 23.65C37.8516 22.95 38.0516 22.1 38.0516 21.1C38.0516 20.1 37.8599 19.2583 37.4766 18.575C37.0932 17.875 36.5849 17.35 35.9516 17C35.3182 16.65 34.6349 16.475 33.9016 16.475C33.1682 16.475 32.4849 16.65 31.8516 17C31.2349 17.35 30.7432 17.875 30.3766 18.575C30.0099 19.2583 29.8266 20.1 29.8266 21.1C29.8266 22.5833 30.2016 23.7333 30.9516 24.55C31.7182 25.35 32.6766 25.75 33.8266 25.75ZM50.7439 14C51.8273 14 52.7939 14.225 53.6439 14.675C54.5106 15.125 55.1856 15.7917 55.6689 16.675C56.1523 17.5583 56.3939 18.625 56.3939 19.875V28H53.5689V20.3C53.5689 19.0667 53.2606 18.125 52.6439 17.475C52.0273 16.8083 51.1856 16.475 50.1189 16.475C49.0523 16.475 48.2023 16.8083 47.5689 17.475C46.9523 18.125 46.6439 19.0667 46.6439 20.3V28H43.7939V14.225H46.6439V15.8C47.1106 15.2333 47.7023 14.7917 48.4189 14.475C49.1523 14.1583 49.9273 14 50.7439 14ZM72.6543 20.775C72.6543 21.2917 72.621 21.7583 72.5543 22.175H62.0293C62.1126 23.275 62.521 24.1583 63.2543 24.825C63.9876 25.4917 64.8876 25.825 65.9543 25.825C67.4876 25.825 68.571 25.1833 69.2043 23.9H72.2793C71.8626 25.1667 71.1043 26.2083 70.0043 27.025C68.921 27.825 67.571 28.225 65.9543 28.225C64.6376 28.225 63.4543 27.9333 62.4043 27.35C61.371 26.75 60.5543 25.9167 59.9543 24.85C59.371 23.7667 59.0793 22.5167 59.0793 21.1C59.0793 19.6833 59.3626 18.4417 59.9293 17.375C60.5126 16.2917 61.321 15.4583 62.3543 14.875C63.4043 14.2917 64.6043 14 65.9543 14C67.2543 14 68.4126 14.2833 69.4293 14.85C70.446 15.4167 71.2376 16.2167 71.8043 17.25C72.371 18.2667 72.6543 19.4417 72.6543 20.775ZM69.6793 19.875C69.6626 18.825 69.2876 17.9833 68.5543 17.35C67.821 16.7167 66.9126 16.4 65.8293 16.4C64.846 16.4 64.0043 16.7167 63.3043 17.35C62.6043 17.9667 62.1876 18.8083 62.0543 19.875H69.6793ZM87.859 14.225L79.409 34.475H76.459L79.259 27.775L73.834 14.225H77.009L80.884 24.725L84.909 14.225H87.859Z" fill="black"/>
<path d="M106.685 14C107.768 14 108.735 14.225 109.585 14.675C110.451 15.125 111.126 15.7917 111.61 16.675C112.11 17.5583 112.36 18.625 112.36 19.875V28H109.535V20.3C109.535 19.0667 109.226 18.125 108.61 17.475C107.993 16.8083 107.151 16.475 106.085 16.475C105.018 16.475 104.168 16.8083 103.535 17.475C102.918 18.125 102.61 19.0667 102.61 20.3V28H99.7848V20.3C99.7848 19.0667 99.4764 18.125 98.8598 17.475C98.2431 16.8083 97.4014 16.475 96.3348 16.475C95.2681 16.475 94.4181 16.8083 93.7848 17.475C93.1681 18.125 92.8598 19.0667 92.8598 20.3V28H90.0098V14.225H92.8598V15.8C93.3264 15.2333 93.9181 14.7917 94.6348 14.475C95.3514 14.1583 96.1181 14 96.9348 14C98.0348 14 99.0181 14.2333 99.8848 14.7C100.751 15.1667 101.418 15.8417 101.885 16.725C102.301 15.8917 102.951 15.2333 103.835 14.75C104.718 14.25 105.668 14 106.685 14ZM115.036 21.05C115.036 19.6667 115.32 18.4417 115.886 17.375C116.47 16.3083 117.253 15.4833 118.236 14.9C119.236 14.3 120.336 14 121.536 14C122.62 14 123.561 14.2167 124.361 14.65C125.178 15.0667 125.828 15.5917 126.311 16.225V14.225H129.186V28H126.311V25.95C125.828 26.6 125.17 27.1417 124.336 27.575C123.503 28.0083 122.553 28.225 121.486 28.225C120.303 28.225 119.22 27.925 118.236 27.325C117.253 26.7083 116.47 25.8583 115.886 24.775C115.32 23.675 115.036 22.4333 115.036 21.05ZM126.311 21.1C126.311 20.15 126.111 19.325 125.711 18.625C125.328 17.925 124.82 17.3917 124.186 17.025C123.553 16.6583 122.87 16.475 122.136 16.475C121.403 16.475 120.72 16.6583 120.086 17.025C119.453 17.375 118.936 17.9 118.536 18.6C118.153 19.2833 117.961 20.1 117.961 21.05C117.961 22 118.153 22.8333 118.536 23.55C118.936 24.2667 119.453 24.8167 120.086 25.2C120.736 25.5667 121.42 25.75 122.136 25.75C122.87 25.75 123.553 25.5667 124.186 25.2C124.82 24.8333 125.328 24.3 125.711 23.6C126.111 22.8833 126.311 22.05 126.311 21.1ZM135.78 16.25C136.263 15.6167 136.921 15.0833 137.755 14.65C138.588 14.2167 139.53 14 140.58 14C141.78 14 142.871 14.3 143.855 14.9C144.855 15.4833 145.638 16.3083 146.205 17.375C146.771 18.4417 147.055 19.6667 147.055 21.05C147.055 22.4333 146.771 23.675 146.205 24.775C145.638 25.8583 144.855 26.7083 143.855 27.325C142.871 27.925 141.78 28.225 140.58 28.225C139.53 28.225 138.596 28.0167 137.78 27.6C136.963 27.1667 136.296 26.6333 135.78 26V34.55H132.93V14.225H135.78V16.25ZM144.155 21.05C144.155 20.1 143.955 19.2833 143.555 18.6C143.171 17.9 142.655 17.375 142.005 17.025C141.371 16.6583 140.688 16.475 139.955 16.475C139.238 16.475 138.555 16.6583 137.905 17.025C137.271 17.3917 136.755 17.925 136.355 18.625C135.971 19.325 135.78 20.15 135.78 21.1C135.78 22.05 135.971 22.8833 136.355 23.6C136.755 24.3 137.271 24.8333 137.905 25.2C138.555 25.5667 139.238 25.75 139.955 25.75C140.688 25.75 141.371 25.5667 142.005 25.2C142.655 24.8167 143.171 24.2667 143.555 23.55C143.955 22.8333 144.155 22 144.155 21.05Z" fill="white"/>
<path d="M171.107 13H179.679V21.5714" stroke="white" stroke-width="1.42857" stroke-linecap="round" stroke-linejoin="round"/>
<path d="M179.679 13L167.571 25.1071C167.371 25.3035 167.102 25.4134 166.821 25.4134C166.541 25.4134 166.272 25.3035 166.071 25.1071L161.143 20.1786C160.943 19.9823 160.673 19.8723 160.393 19.8723C160.112 19.8723 159.843 19.9823 159.643 20.1786L151.821 28" stroke="white" stroke-width="1.42857" stroke-linecap="round" stroke-linejoin="round"/>
</svg>
