<svg width="27" height="27" viewBox="0 0 27 27" fill="none" xmlns="http://www.w3.org/2000/svg">
<path d="M6.75 11.25H11.25" stroke="white" stroke-width="1.5" stroke-linecap="round" stroke-linejoin="round"/>
<path d="M23.4371 12.375H20.5099C18.5018 12.375 16.875 13.8859 16.875 15.75C16.875 17.6141 18.5029 19.125 20.5087 19.125H23.4371C23.5316 19.125 23.5777 19.125 23.6171 19.1227C24.2246 19.0856 24.7084 18.6368 24.7477 18.0731C24.75 18.0371 24.75 17.9932 24.75 17.9066V13.5934C24.75 13.5068 24.75 13.4629 24.7477 13.4269C24.7072 12.8633 24.2246 12.4144 23.6171 12.3772C23.5777 12.375 23.5316 12.375 23.4371 12.375Z" stroke="white" stroke-width="1.5"/>
<path d="M23.5856 12.375C23.4979 10.269 23.2166 8.9775 22.3065 8.0685C20.9891 6.75 18.8674 6.75 14.625 6.75H11.25C7.00763 6.75 4.88588 6.75 3.5685 8.0685C2.25 9.38587 2.25 11.5076 2.25 15.75C2.25 19.9924 2.25 22.1141 3.5685 23.4315C4.88588 24.75 7.00763 24.75 11.25 24.75H14.625C18.8674 24.75 20.9891 24.75 22.3065 23.4315C23.2166 22.5225 23.499 21.231 23.5856 19.125" stroke="white" stroke-width="1.5"/>
<path d="M6.75 6.75001L10.9519 3.96339C11.5428 3.57902 12.2326 3.37442 12.9375 3.37442C13.6424 3.37442 14.3322 3.57902 14.9231 3.96339L19.125 6.75001" stroke="white" stroke-width="1.5" stroke-linecap="round"/>
<path d="M20.2399 15.75H20.2499" stroke="white" stroke-width="2" stroke-linecap="round" stroke-linejoin="round"/>
</svg>
